<!-- Generated by IcoMoon.io -->
<svg version="1.1" xmlns="http://www.w3.org/2000/svg" width="32" height="32" viewBox="0 0 32 32">
<title>heart</title>
<path d="M29.415 4.545c-1.676-1.676-3.894-2.591-6.262-2.591s-4.593 0.923-6.268 2.598l-0.875 0.875-0.889-0.889c-1.676-1.676-3.908-2.605-6.275-2.605-2.361 0-4.586 0.923-6.255 2.591-1.676 1.676-2.598 3.901-2.591 6.268 0 2.368 0.929 4.586 2.605 6.262l12.74 12.74c0.176 0.176 0.414 0.271 0.644 0.271s0.468-0.088 0.644-0.265l12.767-12.72c1.676-1.676 2.598-3.901 2.598-6.268 0.007-2.368-0.909-4.593-2.585-6.268zM28.113 15.786l-12.123 12.075-12.096-12.096c-1.33-1.33-2.062-3.094-2.062-4.973s0.726-3.643 2.056-4.966c1.323-1.323 3.087-2.056 4.959-2.056 1.879 0 3.65 0.733 4.979 2.062l1.533 1.533c0.36 0.36 0.936 0.36 1.296 0l1.52-1.52c1.33-1.33 3.1-2.062 4.973-2.062s3.636 0.733 4.966 2.056c1.33 1.33 2.056 3.094 2.056 4.973 0.007 1.879-0.726 3.643-2.056 4.973z"></path>
</svg>
