<!-- Generated by IcoMoon.io -->
<svg version="1.1" xmlns="http://www.w3.org/2000/svg" width="32" height="32" viewBox="0 0 32 32">
<title>like</title>
<path d="M29.665 4.642c-1.578-1.791-3.768-2.777-6.165-2.777-3.372 0-5.506 2.014-6.703 3.703-0.311 0.438-0.575 0.878-0.797 1.292-0.222-0.414-0.486-0.853-0.797-1.292-1.197-1.689-3.332-3.703-6.703-3.703-2.397 0-4.587 0.986-6.165 2.777-1.506 1.708-2.335 3.996-2.335 6.442 0 2.663 1.040 5.139 3.272 7.794 1.995 2.372 4.865 4.818 8.188 7.65 1.238 1.055 2.519 2.146 3.882 3.339l0.041 0.036c0.177 0.155 0.397 0.232 0.617 0.232s0.441-0.077 0.617-0.232l0.041-0.036c1.363-1.193 2.644-2.284 3.882-3.339 3.323-2.832 6.193-5.277 8.188-7.65 2.232-2.655 3.272-5.131 3.272-7.794 0-2.446-0.829-4.734-2.335-6.443zM19.325 25.101c-1.067 0.91-2.166 1.846-3.325 2.853-1.158-1.007-2.257-1.943-3.325-2.853-6.504-5.542-10.8-9.203-10.8-14.016 0-1.989 0.663-3.837 1.866-5.203 1.217-1.381 2.907-2.142 4.759-2.142 2.571 0 4.232 1.584 5.174 2.912 0.844 1.192 1.285 2.393 1.435 2.854 0.126 0.386 0.486 0.647 0.891 0.647s0.766-0.261 0.891-0.647c0.15-0.461 0.591-1.662 1.435-2.854 0.941-1.328 2.603-2.912 5.174-2.912 1.851 0 3.541 0.761 4.759 2.142 1.204 1.366 1.866 3.213 1.866 5.203 0 4.813-4.297 8.474-10.8 14.016z"></path>
</svg>
