<!-- Generated by IcoMoon.io -->
<svg version="1.1" xmlns="http://www.w3.org/2000/svg" width="32" height="32" viewBox="0 0 32 32">
<title>magnifying-glass</title>
<path d="M30.938 29.137l-7.363-7.363c1.825-2.225 2.925-5.075 2.925-8.181 0-7.125-5.781-12.906-12.906-12.906-7.131 0-12.906 5.781-12.906 12.906s5.775 12.906 12.906 12.906c3.106 0 5.95-1.094 8.175-2.919l7.363 7.356c0.5 0.5 1.306 0.5 1.806 0 0.5-0.494 0.5-1.306 0-1.8zM13.594 23.931c-5.706 0-10.344-4.637-10.344-10.338s4.638-10.344 10.344-10.344c5.7 0 10.344 4.644 10.344 10.344s-4.644 10.338-10.344 10.338z"></path>
</svg>
