<!-- Generated by IcoMoon.io -->
<svg version="1.1" xmlns="http://www.w3.org/2000/svg" width="32" height="32" viewBox="0 0 32 32">
<title>search</title>
<path d="M12.666 25.333c-6.984 0-12.666-5.682-12.666-12.666s5.682-12.666 12.666-12.666c6.984 0 12.666 5.682 12.666 12.666s-5.682 12.666-12.666 12.666zM12.666 2.001c-5.881 0-10.666 4.785-10.666 10.666s4.785 10.666 10.666 10.666c5.881 0 10.666-4.785 10.666-10.666s-4.785-10.666-10.666-10.666zM30.999 32c-0.256 0-0.512-0.097-0.707-0.293l-10.080-10.080c-0.391-0.391-0.391-1.024 0-1.415s1.024-0.391 1.415 0l10.080 10.080c0.391 0.391 0.391 1.024 0 1.415-0.196 0.196-0.452 0.293-0.708 0.293z"></path>
</svg>
