<!-- Generated by IcoMoon.io -->
<svg version="1.1" xmlns="http://www.w3.org/2000/svg" width="32" height="32" viewBox="0 0 32 32">
<title>user</title>
<path d="M15.79 15.941c4.135 0 7.487-3.352 7.487-7.487s-3.352-7.487-7.487-7.487c-4.135 0-7.487 3.352-7.487 7.487 0.003 4.134 3.354 7.484 7.487 7.487zM15.79 2.235c3.434 0 6.218 2.784 6.218 6.218s-2.784 6.218-6.218 6.218c-3.434 0-6.218-2.784-6.218-6.218 0.006-3.432 2.786-6.213 6.218-6.218zM15.79 17.812c-3.255 0-6.282 1.263-8.528 3.56-2.278 2.329-3.528 5.507-3.528 8.959 0.001 0.35 0.285 0.633 0.635 0.634h22.843c0.35-0.001 0.633-0.284 0.634-0.634 0-3.445-1.25-6.631-3.528-8.953-2.246-2.297-5.273-3.566-8.528-3.566zM5.016 29.697c0.14-2.868 1.25-5.489 3.147-7.43 2.005-2.050 4.714-3.179 7.621-3.179s5.615 1.129 7.62 3.179c1.904 1.942 3.008 4.562 3.147 7.43z"></path>
</svg>
