<!-- Generated by IcoMoon.io -->
<svg version="1.1" xmlns="http://www.w3.org/2000/svg" width="32" height="32" viewBox="0 0 32 32">
<title>user2</title>
<path d="M18.706 15.969h-5.411c-5.321 0-9.651 4.329-9.651 9.651v6.38h24.714v-6.38c0-5.322-4.33-9.651-9.651-9.651zM5.518 30.125v-4.505c0-4.288 3.489-7.776 7.776-7.776h5.411c4.287 0 7.776 3.488 7.776 7.776v4.505h-20.964zM16 0c-4.115 0-7.463 3.348-7.463 7.463s3.348 7.463 7.463 7.463 7.463-3.348 7.463-7.463-3.348-7.463-7.463-7.463zM16 13.051c-3.081 0-5.588-2.507-5.588-5.588s2.507-5.588 5.588-5.588 5.588 2.507 5.588 5.588c0 3.081-2.507 5.588-5.588 5.588z"></path>
</svg>
